<svg width="167" height="43" viewBox="0 0 167 43" fill="none" xmlns="http://www.w3.org/2000/svg">
<path d="M21.5 4.29999C17.2 4.29999 14.3333 7.16665 14.3333 11.4667C14.3333 14.3333 17.2 18.6333 21.5 18.6333C24.3667 18.6333 27.2333 11.4667 27.2333 8.59999C27.2333 7.16665 25.8 4.29999 21.5 4.29999ZM32.9667 14.3333C30.1 14.3333 24.3667 18.633 24.3667 22.9473C24.3667 25.7997 28.6667 27.2333 31.5333 27.2333C32.9667 27.2333 38.7 25.8 38.7 20.0667C38.7 17.2 35.8333 14.3333 32.9667 14.3333ZM8.60001 15.7667C5.73334 15.7667 4.30001 18.6333 4.30001 20.0667C4.30001 21.5 5.73334 22.9333 10.0333 22.9333C10.6425 22.9462 15.7667 22.9333 15.7667 20.0667C15.7667 17.2 12.9 15.7667 8.60001 15.7667ZM12.9 25.8C8.60001 25.8 4.28997 28.628 4.30001 30.1C4.31147 31.6996 7.16667 35.8333 11.4667 35.8333C15.7667 35.8333 15.7667 30.1 15.7667 28.6667C15.7667 25.8 13.707 25.8631 12.9 25.8ZM22.9333 27.2333C21.5 27.2333 18.6333 28.6667 18.6333 31.5333C18.6333 34.4 21.5 38.7 25.8 38.7C30.1 38.7 31.5333 36.3092 31.5333 34.4C31.5333 31.5333 28.0561 27.2333 22.9333 27.2333Z" fill="#3E0505"/>
<path d="M47.6351 29V13.16H50.8251L60.5491 24.732V13.16H63.4751V29H60.2851L50.5391 17.406V29H47.6351Z" fill="#3E0505"/>
<path d="M71.0438 29C70.2078 29 69.4891 28.6993 68.8878 28.098C68.2864 27.4966 67.9858 26.778 67.9858 25.942V16.218C67.9858 15.382 68.2864 14.6633 68.8878 14.062C69.4891 13.4606 70.2078 13.16 71.0438 13.16H80.7678C81.6038 13.16 82.3224 13.4606 82.9238 14.062C83.5251 14.6633 83.8258 15.382 83.8258 16.218V25.942C83.8258 26.778 83.5251 27.4966 82.9238 28.098C82.3224 28.6993 81.6038 29 80.7678 29H71.0438ZM71.6598 26.074H80.1298C80.5258 26.074 80.7531 26.052 80.8118 26.008C80.8704 25.9493 80.8998 25.7146 80.8998 25.304V16.856C80.8998 16.4453 80.8704 16.218 80.8118 16.174C80.7531 16.1153 80.5258 16.086 80.1298 16.086H71.6598C71.2491 16.086 71.0144 16.1153 70.9558 16.174C70.9118 16.218 70.8898 16.4453 70.8898 16.856V25.304C70.8898 25.7146 70.9118 25.9493 70.9558 26.008C71.0144 26.052 71.2491 26.074 71.6598 26.074Z" fill="#3E0505"/>
<path d="M88.1505 29V18.542C88.1505 17.858 88.3965 17.27 88.8885 16.778C89.3805 16.286 89.9685 16.04 90.6525 16.04H98.5905C99.2865 16.04 99.8805 16.286 100.373 16.778C100.865 17.27 101.111 17.858 101.111 18.542V29H98.7165V24.644H90.5265V29H88.1505ZM90.5265 22.268H98.7165V19.064C98.7165 18.728 98.6925 18.542 98.6445 18.506C98.5965 18.458 98.4105 18.434 98.0865 18.434H91.1565C90.8205 18.434 90.6285 18.458 90.5805 18.506C90.5445 18.542 90.5265 18.728 90.5265 19.064V22.268Z" fill="#3E0505"/>
<path d="M104.889 29V16.022H107.265V26.606H117.849V29H104.889Z" fill="#3E0505"/>
<path d="M120.645 29V16.04H132.579V18.434H123.039V21.314H130.707V23.708H123.039V26.606H132.579V29H120.645Z" fill="#3E0505"/>
<path d="M136.082 29V16.058H146.522C147.218 16.058 147.812 16.31 148.304 16.814C148.796 17.306 149.042 17.888 149.042 18.56V22.052C149.042 22.736 148.796 23.324 148.304 23.816C147.812 24.308 147.218 24.554 146.522 24.554H145.82L149.024 28.334V29H146.432L142.706 24.554L138.458 24.572V29H136.082ZM139.088 22.16H146.018C146.342 22.16 146.522 22.142 146.558 22.106C146.606 22.07 146.63 21.884 146.63 21.548V19.064C146.63 18.728 146.606 18.542 146.558 18.506C146.522 18.458 146.342 18.434 146.018 18.434H139.088C138.752 18.434 138.56 18.458 138.512 18.506C138.476 18.542 138.458 18.728 138.458 19.064V21.548C138.458 21.884 138.476 22.07 138.512 22.106C138.56 22.142 138.752 22.16 139.088 22.16Z" fill="#3E0505"/>
<path d="M155.166 29C154.482 29 153.894 28.754 153.402 28.262C152.91 27.77 152.663 27.182 152.663 26.498V18.542C152.663 17.858 152.91 17.27 153.402 16.778C153.894 16.286 154.482 16.04 155.166 16.04H163.104C163.799 16.04 164.394 16.286 164.885 16.778C165.377 17.27 165.624 17.858 165.624 18.542V19.55H163.229V19.064C163.229 18.728 163.205 18.542 163.158 18.506C163.11 18.458 162.924 18.434 162.6 18.434H155.67C155.334 18.434 155.141 18.458 155.093 18.506C155.057 18.542 155.039 18.728 155.039 19.064V25.976C155.039 26.312 155.057 26.504 155.093 26.552C155.141 26.588 155.334 26.606 155.67 26.606H162.6C162.924 26.606 163.11 26.588 163.158 26.552C163.205 26.504 163.229 26.312 163.229 25.976V24.05H160.296V21.656H165.624V26.498C165.624 27.182 165.377 27.77 164.885 28.262C164.394 28.754 163.799 29 163.104 29H155.166Z" fill="#3E0505"/>
</svg>
