<svg width="108" height="68" viewBox="0 0 108 68" fill="none" xmlns="http://www.w3.org/2000/svg">
<path d="M53.5 4.29999C49.2 4.29999 46.3333 7.16665 46.3333 11.4667C46.3333 14.3333 49.2 18.6333 53.5 18.6333C56.3667 18.6333 59.2333 11.4667 59.2333 8.59999C59.2333 7.16665 57.8 4.29999 53.5 4.29999ZM64.9667 14.3333C62.1 14.3333 56.3667 18.633 56.3667 22.9473C56.3667 25.7997 60.6667 27.2333 63.5333 27.2333C64.9667 27.2333 70.7 25.8 70.7 20.0667C70.7 17.2 67.8333 14.3333 64.9667 14.3333ZM40.6 15.7667C37.7333 15.7667 36.3 18.6333 36.3 20.0667C36.3 21.5 37.7333 22.9333 42.0333 22.9333C42.6425 22.9462 47.7667 22.9333 47.7667 20.0667C47.7667 17.2 44.9 15.7667 40.6 15.7667ZM44.9 25.8C40.6 25.8 36.29 28.628 36.3 30.1C36.3115 31.6996 39.1667 35.8333 43.4667 35.8333C47.7667 35.8333 47.7667 30.1 47.7667 28.6667C47.7667 25.8 45.707 25.8631 44.9 25.8ZM54.9333 27.2333C53.5 27.2333 50.6333 28.6667 50.6333 31.5333C50.6333 34.4 53.5 38.7 57.8 38.7C62.1 38.7 63.5333 36.3092 63.5333 34.4C63.5333 31.5333 60.0561 27.2333 54.9333 27.2333Z" fill="#3E0505"/>
<path d="M1.28938 63V48.6H4.18938L13.0294 59.12V48.6H15.6894V63H12.7894L3.92938 52.46V63H1.28938Z" fill="#3E0505"/>
<path d="M22.57 63C21.81 63 21.1567 62.7267 20.61 62.18C20.0633 61.6333 19.79 60.98 19.79 60.22V51.38C19.79 50.62 20.0633 49.9667 20.61 49.42C21.1567 48.8733 21.81 48.6 22.57 48.6H31.41C32.17 48.6 32.8233 48.8733 33.37 49.42C33.9167 49.9667 34.19 50.62 34.19 51.38V60.22C34.19 60.98 33.9167 61.6333 33.37 62.18C32.8233 62.7267 32.17 63 31.41 63H22.57ZM23.13 60.34H30.83C31.19 60.34 31.3967 60.32 31.45 60.28C31.5033 60.2267 31.53 60.0133 31.53 59.64V51.96C31.53 51.5867 31.5033 51.38 31.45 51.34C31.3967 51.2867 31.19 51.26 30.83 51.26H23.13C22.7567 51.26 22.5433 51.2867 22.49 51.34C22.45 51.38 22.43 51.5867 22.43 51.96V59.64C22.43 60.0133 22.45 60.2267 22.49 60.28C22.5433 60.32 22.7567 60.34 23.13 60.34Z" fill="#3E0505"/>
<path d="M38.1005 63V53.704C38.1005 53.096 38.3192 52.5733 38.7565 52.136C39.1938 51.6987 39.7165 51.48 40.3245 51.48H47.3805C47.9992 51.48 48.5272 51.6987 48.9645 52.136C49.4018 52.5733 49.6205 53.096 49.6205 53.704V63H47.4925V59.128H40.2125V63H38.1005ZM40.2125 57.016H47.4925V54.168C47.4925 53.8693 47.4712 53.704 47.4285 53.672C47.3858 53.6293 47.2205 53.608 46.9325 53.608H40.7725C40.4738 53.608 40.3032 53.6293 40.2605 53.672C40.2285 53.704 40.2125 53.8693 40.2125 54.168V57.016Z" fill="#3E0505"/>
<path d="M52.9795 63V51.464H55.0915V60.872H64.4995V63H52.9795Z" fill="#3E0505"/>
<path d="M66.9843 63V51.48H77.5922V53.608H69.1123V56.168H75.9283V58.296H69.1123V60.872H77.5922V63H66.9843Z" fill="#3E0505"/>
<path d="M80.7063 63V51.496H89.9863C90.6049 51.496 91.1329 51.72 91.5703 52.168C92.0076 52.6053 92.2263 53.1227 92.2263 53.72V56.824C92.2263 57.432 92.0076 57.9547 91.5703 58.392C91.1329 58.8293 90.6049 59.048 89.9863 59.048H89.3623L92.2103 62.408V63H89.9063L86.5943 59.048L82.8183 59.064V63H80.7063ZM83.3783 56.92H89.5383C89.8263 56.92 89.9863 56.904 90.0183 56.872C90.0609 56.84 90.0823 56.6747 90.0823 56.376V54.168C90.0823 53.8693 90.0609 53.704 90.0183 53.672C89.9863 53.6293 89.8263 53.608 89.5383 53.608H83.3783C83.0796 53.608 82.9089 53.6293 82.8663 53.672C82.8343 53.704 82.8183 53.8693 82.8183 54.168V56.376C82.8183 56.6747 82.8343 56.84 82.8663 56.872C82.9089 56.904 83.0796 56.92 83.3783 56.92Z" fill="#3E0505"/>
<path d="M97.6694 63C97.0614 63 96.5387 62.7813 96.1014 62.344C95.6641 61.9067 95.4454 61.384 95.4454 60.776V53.704C95.4454 53.096 95.6641 52.5733 96.1014 52.136C96.5387 51.6987 97.0614 51.48 97.6694 51.48H104.725C105.344 51.48 105.872 51.6987 106.309 52.136C106.747 52.5733 106.965 53.096 106.965 53.704V54.6H104.837V54.168C104.837 53.8693 104.816 53.704 104.773 53.672C104.731 53.6293 104.565 53.608 104.277 53.608H98.1174C97.8187 53.608 97.648 53.6293 97.6054 53.672C97.5734 53.704 97.5574 53.8693 97.5574 54.168V60.312C97.5574 60.6107 97.5734 60.7813 97.6054 60.824C97.648 60.856 97.8187 60.872 98.1174 60.872H104.277C104.565 60.872 104.731 60.856 104.773 60.824C104.816 60.7813 104.837 60.6107 104.837 60.312V58.6H102.229V56.472H106.965V60.776C106.965 61.384 106.747 61.9067 106.309 62.344C105.872 62.7813 105.344 63 104.725 63H97.6694Z" fill="#3E0505"/>
</svg>
